<svg width="42" height="42" viewBox="0 0 42 42" fill="none" xmlns="http://www.w3.org/2000/svg">
<circle cx="21" cy="21" r="21" fill="#A1D4F1"/>
<path d="M31.5 19.25H22.75V10.5C22.75 9.534 21.966 8.75 21 8.75C20.034 8.75 19.25 9.534 19.25 10.5V19.25H10.5C9.534 19.25 8.75 20.034 8.75 21C8.75 21.966 9.534 22.75 10.5 22.75H19.25V31.5C19.25 32.466 20.034 33.25 21 33.25C21.966 33.25 22.75 32.466 22.75 31.5V22.75H31.5C32.466 22.75 33.25 21.966 33.25 21C33.25 20.034 32.466 19.25 31.5 19.25Z" fill="white"/>
</svg>
