<svg width="32" height="32" viewBox="0 0 32 32" fill="none" xmlns="http://www.w3.org/2000/svg">
<g clip-path="url(#clip0)">
<path d="M23.8454 26.7956C24.6126 27.5623 24.613 28.8077 23.8454 29.5752C23.0786 30.3426 21.8337 30.3424 21.0658 29.5752C21.0613 29.5706 21.0579 29.5661 21.0538 29.5614L21.0482 29.5664L8.02982 16.548L8.03524 16.543C7.67174 16.1865 7.44641 15.6907 7.44641 15.1414C7.44596 14.525 7.73044 13.975 8.17545 13.6147L8.1619 13.6016L21.1803 0.583197L21.1859 0.588616C21.19 0.583875 21.1934 0.579811 21.1979 0.575521C21.9655 -0.192125 23.21 -0.192125 23.9777 0.575521C24.7449 1.34226 24.7449 2.58675 23.9777 3.35508C23.9729 3.35959 23.9684 3.36275 23.9639 3.36727L23.9691 3.37269L12.2018 15.1414L23.8384 26.778L23.8327 26.7827C23.8361 26.7877 23.8408 26.7909 23.8454 26.7956Z" fill="white"/>
</g>
<defs>
<clipPath id="clip0">
<rect width="32" height="32" fill="white"/>
</clipPath>
</defs>
</svg>
