<svg width="60" height="60" viewBox="0 0 60 60" fill="none" xmlns="http://www.w3.org/2000/svg">
<circle cx="30" cy="30" r="30" fill="#0D8C6F"/>
<path d="M30.0821 15.848L29.5 16.9333V25.5667H46.7667L47.3365 24.4739L30.0821 15.848Z" fill="white"/>
<path d="M28.9179 15.848L29.5 16.9333V25.5667H12.2333L11.6635 24.4739L28.9179 15.848Z" fill="white"/>
<path d="M28.9179 35.2853L29.5 34.2V25.5667H12.2333L11.6635 26.6594L28.9179 35.2853Z" fill="white"/>
<path d="M30.0821 35.2853L29.5 34.2V25.5667H46.7667L47.3365 26.6594L30.0821 35.2853Z" fill="white"/>
<path d="M46.7667 26.8C47.4478 26.8 48 26.2478 48 25.5667C48 24.8855 47.4478 24.3333 46.7667 24.3333C46.0855 24.3333 45.5333 24.8855 45.5333 25.5667C45.5333 26.2478 46.0855 26.8 46.7667 26.8Z" fill="white"/>
<path d="M12.2333 26.8C12.9145 26.8 13.4667 26.2478 13.4667 25.5667C13.4667 24.8855 12.9145 24.3333 12.2333 24.3333C11.5522 24.3333 11 24.8855 11 25.5667C11 26.2478 11.5522 26.8 12.2333 26.8Z" fill="white"/>
<path d="M29.5 35.4333C30.1811 35.4333 30.7333 34.8812 30.7333 34.2C30.7333 33.5189 30.1811 32.9667 29.5 32.9667C28.8188 32.9667 28.2667 33.5189 28.2667 34.2C28.2667 34.8812 28.8188 35.4333 29.5 35.4333Z" fill="white"/>
<path d="M29.5 18.1667C30.1811 18.1667 30.7333 17.6145 30.7333 16.9333C30.7333 16.2522 30.1811 15.7 29.5 15.7C28.8188 15.7 28.2667 16.2522 28.2667 16.9333C28.2667 17.6145 28.8188 18.1667 29.5 18.1667Z" fill="white"/>
<path d="M31.1847 37.4918C31.0811 37.5436 30.9763 37.5867 30.8702 37.6225C30.4238 37.8063 29.965 37.9 29.5 37.9C29.0363 37.9 28.5787 37.8075 28.1347 37.6237C28.0274 37.588 27.9201 37.5436 27.8153 37.4905L18.4 32.7841V37.9C18.4 41.3052 23.3691 44.0667 29.5 44.0667C35.6309 44.0667 40.6 41.3052 40.6 37.9V32.7841L31.1847 37.4918Z" fill="white"/>
<path d="M44.3 30.9354V44.0667C44.3 44.7487 44.8525 45.3 45.5333 45.3C46.2141 45.3 46.7667 44.7487 46.7667 44.0667V29.702L44.3 30.9354Z" fill="white"/>
<path d="M48 44.0667C48 45.4295 45.5333 49 45.5333 49C45.5333 49 43.0667 45.4295 43.0667 44.0667C43.0667 42.7038 44.1705 41.6 45.5333 41.6C46.8962 41.6 48 42.7038 48 44.0667Z" fill="white"/>
</svg>
