<svg width="60" height="60" viewBox="0 0 60 60" fill="none" xmlns="http://www.w3.org/2000/svg">
<circle cx="30" cy="30" r="30" fill="#66B0E4"/>
<path d="M45.2617 21.3359C45.7825 22.0781 45.8997 22.918 45.6133 23.8555L40.2422 41.5508C39.9948 42.3841 39.4967 43.084 38.748 43.6504C37.9993 44.2168 37.2018 44.5 36.3555 44.5H18.3281C17.3255 44.5 16.3587 44.1517 15.4277 43.4551C14.4967 42.7585 13.849 41.9023 13.4844 40.8867C13.1719 40.0143 13.1589 39.1875 13.4453 38.4063C13.4453 38.3542 13.4648 38.1784 13.5039 37.8789C13.543 37.5794 13.569 37.3385 13.582 37.1563C13.595 37.0521 13.5755 36.9121 13.5234 36.7363C13.4714 36.5605 13.4518 36.4336 13.4648 36.3555C13.4909 36.2122 13.543 36.0755 13.6211 35.9453C13.6992 35.8151 13.8066 35.6621 13.9434 35.4863C14.0801 35.3105 14.1875 35.1576 14.2656 35.0273C14.5651 34.5326 14.8581 33.9369 15.1445 33.2402C15.431 32.5436 15.6263 31.9479 15.7305 31.4531C15.7695 31.3229 15.7728 31.1276 15.7402 30.8672C15.7077 30.6068 15.7044 30.4245 15.7305 30.3203C15.7695 30.1771 15.8802 29.9948 16.0625 29.7734C16.2448 29.5521 16.3555 29.4023 16.3945 29.3242C16.668 28.8555 16.9414 28.2565 17.2148 27.5273C17.4883 26.7982 17.651 26.2122 17.7031 25.7695C17.7161 25.6523 17.6999 25.444 17.6543 25.1445C17.6087 24.8451 17.612 24.6628 17.6641 24.5977C17.7161 24.4284 17.8594 24.2298 18.0937 24.002C18.3281 23.7741 18.4714 23.6276 18.5234 23.5625C18.7708 23.224 19.0475 22.6738 19.3535 21.9121C19.6595 21.1504 19.8385 20.5221 19.8906 20.0273C19.9036 19.9232 19.8841 19.7572 19.832 19.5293C19.7799 19.3014 19.7669 19.1289 19.793 19.0117C19.819 18.9076 19.8776 18.7904 19.9687 18.6602C20.0599 18.5299 20.1771 18.3802 20.3203 18.2109C20.4635 18.0417 20.5742 17.9049 20.6523 17.8008C20.7565 17.6445 20.8639 17.446 20.9746 17.2051C21.0853 16.9642 21.1829 16.7363 21.2676 16.5215C21.3522 16.3066 21.4564 16.0723 21.5801 15.8184C21.7038 15.5645 21.8307 15.3561 21.9609 15.1934C22.0911 15.0306 22.2637 14.8776 22.4785 14.7344C22.6934 14.5911 22.9277 14.5163 23.1816 14.5098C23.4355 14.5033 23.7448 14.5391 24.1094 14.6172L24.0898 14.6758C24.5846 14.5586 24.9167 14.5 25.0859 14.5H39.9492C40.9128 14.5 41.6549 14.8646 42.1758 15.5938C42.6966 16.3229 42.8138 17.1693 42.5273 18.1328L37.1758 35.8281C36.707 37.3776 36.2415 38.377 35.7793 38.8262C35.3171 39.2754 34.4805 39.5 33.2695 39.5H16.2969C15.9453 39.5 15.6979 39.5977 15.5547 39.793C15.4115 40.0013 15.4049 40.2813 15.5352 40.6328C15.8477 41.5443 16.7852 42 18.3477 42H36.375C36.7526 42 37.1172 41.8991 37.4687 41.6973C37.8203 41.4954 38.0482 41.2253 38.1523 40.8867L44.0117 21.6094C44.1029 21.3229 44.1354 20.9518 44.1094 20.4961C44.6042 20.6914 44.9883 20.9714 45.2617 21.3359ZM24.4805 21.375C24.4284 21.5443 24.4414 21.6908 24.5195 21.8145C24.5977 21.9382 24.7279 22 24.9102 22H36.7851C36.9544 22 37.1204 21.9382 37.2832 21.8145C37.446 21.6908 37.5534 21.5443 37.6055 21.375L38.0156 20.125C38.0677 19.9557 38.0547 19.8092 37.9766 19.6855C37.8984 19.5619 37.7682 19.5 37.5859 19.5H25.7109C25.5417 19.5 25.3756 19.5619 25.2129 19.6855C25.0501 19.8092 24.9427 19.9557 24.8906 20.125L24.4805 21.375ZM22.8594 26.375C22.8073 26.5443 22.8203 26.6908 22.8984 26.8145C22.9766 26.9382 23.1068 27 23.2891 27H35.1641C35.3333 27 35.4993 26.9382 35.6621 26.8145C35.8249 26.6908 35.9323 26.5443 35.9844 26.375L36.3945 25.125C36.4466 24.9557 36.4336 24.8092 36.3555 24.6855C36.2773 24.5618 36.1471 24.5 35.9648 24.5H24.0898C23.9206 24.5 23.7546 24.5618 23.5918 24.6855C23.429 24.8092 23.3216 24.9557 23.2695 25.125L22.8594 26.375Z" fill="white"/>
</svg>
