<svg width="60" height="60" viewBox="0 0 60 60" fill="none" xmlns="http://www.w3.org/2000/svg">
<circle cx="30" cy="30" r="30" fill="#F94D4D"/>
<path d="M37.306 20.807L20.6892 37.4239L22.5748 39.3095L39.1916 22.6926L37.306 20.807Z" fill="white"/>
<path d="M44.7782 13.4226L43.2457 14.9545L45.131 16.8406L46.6635 15.3088L44.7782 13.4226Z" fill="white"/>
<path d="M15.2213 46.5101L16.7538 44.9782L14.8685 43.0921L13.336 44.6239L15.2213 46.5101Z" fill="white"/>
<path d="M33.4027 15.4573L30.1011 18.7552L41.1727 29.8394L44.4744 26.5415L33.4027 15.4573Z" fill="white"/>
<path d="M39.321 13.3846L36.7268 15.9762L44.1482 23.405L46.7424 20.8134L39.321 13.3846Z" fill="white"/>
<path d="M26.594 44.4157L29.8957 41.1178L18.8241 30.0336L15.5224 33.3316L26.594 44.4157Z" fill="white"/>
<path d="M20.6769 46.6344L23.2711 44.0428L15.8497 36.614L13.2555 39.2056L20.6769 46.6344Z" fill="white"/>
</svg>
