<svg width="60" height="60" viewBox="0 0 60 60" fill="none" xmlns="http://www.w3.org/2000/svg">
<circle cx="30" cy="30" r="30" fill="#6444E4"/>
<path d="M43.0031 27.6875L40.375 25.0612V18.625C40.375 17.6281 39.5594 16.8125 38.5625 16.8125H36.75C35.7531 16.8125 34.9375 17.6281 34.9375 18.625V19.6273L31.3125 16.0059C30.8177 15.5383 30.3646 15 29.5 15C28.6354 15 28.1823 15.5383 27.6875 16.0059L15.9969 27.6875C15.4314 28.2766 15 28.7061 15 29.5C15 30.5204 15.783 31.3125 16.8125 31.3125H18.625V42.1875C18.625 43.1844 19.4406 44 20.4375 44H25.875V34.9375C25.875 33.9406 26.6906 33.125 27.6875 33.125H31.3125C32.3094 33.125 33.125 33.9406 33.125 34.9375V44H38.5625C39.5594 44 40.375 43.1844 40.375 42.1875V31.3125H42.1875C43.217 31.3125 44 30.5204 44 29.5C44 28.7061 43.5686 28.2766 43.0031 27.6875Z" fill="white"/>
</svg>
