<svg width="44" height="44" viewBox="0 0 44 44" fill="none" xmlns="http://www.w3.org/2000/svg">
<path d="M30.25 22C32.78 22 34.815 19.9467 34.815 17.4167C34.815 14.8867 32.78 12.8333 30.25 12.8333C27.72 12.8333 25.6667 14.8867 25.6667 17.4167C25.6667 19.9467 27.72 22 30.25 22ZM16.5 20.1667C19.5342 20.1667 21.9817 17.7008 21.9817 14.6667C21.9817 11.6325 19.5342 9.16666 16.5 9.16666C13.4658 9.16666 11 11.6325 11 14.6667C11 17.7008 13.4658 20.1667 16.5 20.1667ZM30.25 25.6667C26.8858 25.6667 20.1667 27.3533 20.1667 30.7083V34.8333H40.3333V30.7083C40.3333 27.3533 33.6142 25.6667 30.25 25.6667ZM16.5 23.8333C12.2192 23.8333 3.66666 25.9783 3.66666 30.25V34.8333H16.5V30.7083C16.5 29.15 17.1142 26.4275 20.845 24.3467C19.25 24.0075 17.7008 23.8333 16.5 23.8333Z" fill="#F8F8F8"/>
</svg>
