<svg width="32" height="32" viewBox="0 0 32 32" fill="none" xmlns="http://www.w3.org/2000/svg">
<path d="M27.89 19.655C27.3381 21.4468 26.3876 23.0904 25.11 24.4625L26 28.4875C24.7364 29.5007 23.3261 30.3158 21.8175 30.905L18.7775 28.1225C16.9505 28.5424 15.052 28.5424 13.225 28.1225L10.1825 30.905C8.67386 30.3158 7.26358 29.5007 6 28.4875L6.89 24.465C5.61203 23.0921 4.66158 21.4477 4.11 19.655L0.182499 18.405C-0.0596528 16.8041 -0.0596528 15.1759 0.182499 13.575L4.11 12.325C4.66441 10.5395 5.61469 8.90212 6.89 7.535L6 3.5125C7.26358 2.49933 8.67386 1.68418 10.1825 1.09499L13.2225 3.87749C15.0495 3.45761 16.948 3.45761 18.775 3.87749L21.815 1.09499C23.3245 1.68392 24.7357 2.49908 26 3.5125L25.11 7.535C26.3876 8.90713 27.3381 10.5507 27.89 12.3425L31.8175 13.5925C32.0596 15.1934 32.0596 16.8216 31.8175 18.4225L27.89 19.655ZM16 10.3325C14.8791 10.3325 13.7833 10.6649 12.8513 11.2876C11.9193 11.9104 11.1929 12.7955 10.7639 13.8311C10.335 14.8667 10.2227 16.0063 10.4414 17.1057C10.6601 18.2051 11.1999 19.2149 11.9925 20.0075C12.7851 20.8001 13.7949 21.3399 14.8943 21.5586C15.9937 21.7773 17.1333 21.665 18.1689 21.2361C19.2045 20.8071 20.0896 20.0807 20.7124 19.1487C21.3351 18.2167 21.6675 17.1209 21.6675 16C21.6675 14.4969 21.0704 13.0553 20.0075 11.9925C18.9447 10.9296 17.5031 10.3325 16 10.3325Z" fill="#F8F8F8"/>
</svg>
