<svg width="375" height="154" viewBox="0 0 375 154" fill="none" xmlns="http://www.w3.org/2000/svg">
<g clip-path="url(#clip0)">
<path d="M0 15.4L22.1667 25.6506C44.3333 36.0937 88.6667 56.3062 133 66.7494C177.333 77 221.667 77 266 66.7494C310.333 56.3062 354.667 36.0937 399 43.6494C443.333 51.4937 487.667 87.1062 532 97.5494C576.333 107.8 386.833 84.7 409 77H665L532 167L419 115.5C396.833 115.5 576.333 154 532 154C487.667 154 443.333 154 399 154C354.667 154 310.333 154 266 154C221.667 154 177.333 154 133 154C88.6667 154 44.3333 154 22.1667 154H0V84.7V15.4Z" fill="#489CCF"/>
</g>
<defs>
<clipPath id="clip0">
<rect width="665" height="154" fill="white"/>
</clipPath>
</defs>
</svg>
