<svg width="134" height="175" viewBox="0 0 134 175" fill="none" xmlns="http://www.w3.org/2000/svg">
<path d="M169.446 84.829C169.446 121.953 145.649 153.506 112.506 165.007C99.1653 169.61 84.8925 170.821 70.9692 168.531C69.6479 168.315 68.3359 168.067 67.0333 167.786C65.2683 167.411 63.5242 166.979 61.8009 166.49C26.218 156.455 0.137573 123.694 0.137573 84.829C0.137573 37.979 38.0384 0 84.7919 0C131.545 0 169.446 37.979 169.446 84.829Z" fill="#A1D4F1"/>
<path d="M31.77 111.011C31.6209 111.091 31.5096 111.227 31.4605 111.389C31.4113 111.551 31.4284 111.726 31.5078 111.876L63.3356 171.613C63.4154 171.762 63.551 171.873 63.7127 171.923C63.8745 171.972 64.0491 171.955 64.1983 171.875L109.19 147.805C109.339 147.725 109.45 147.589 109.499 147.427C109.549 147.265 109.532 147.09 109.452 146.94L77.6243 87.2032C77.5446 87.0539 77.4089 86.9424 77.2472 86.8931C77.0855 86.8439 76.9109 86.8609 76.7617 86.9405L31.77 111.011Z" fill="#3F3D56"/>
<path d="M35.9521 112.757L65.0777 167.421L105.008 146.059L75.8822 91.394L35.9521 112.757ZM33.4218 114.11L33.4274 114.107L33.4212 114.11L33.4218 114.11Z" fill="white"/>
<path d="M46.0199 118.766C45.3995 119.098 45.2674 120.067 45.725 120.926C46.1825 121.785 47.0593 122.214 47.6796 121.882L76.9242 106.236C77.5446 105.904 77.6766 104.935 77.2191 104.077C76.7616 103.218 75.8848 102.789 75.2645 103.121L46.0199 118.766Z" fill="#9672FB"/>
<path d="M49.6231 125.529C49.0027 125.861 48.8707 126.83 49.3282 127.689C49.7857 128.547 50.6625 128.976 51.2829 128.644L80.5274 112.999C81.1478 112.667 81.2798 111.698 80.8223 110.839C80.3649 109.981 79.488 109.551 78.8677 109.883L49.6231 125.529Z" fill="#9672FB"/>
<path d="M53.2262 132.292C52.6058 132.624 52.4737 133.593 52.9313 134.451C53.3888 135.31 54.2656 135.739 54.8859 135.407L84.1305 119.761C84.7509 119.429 84.8829 118.46 84.4254 117.602C83.9679 116.743 83.0911 116.314 82.4707 116.646L53.2262 132.292Z" fill="#9672FB"/>
<path d="M56.8293 139.055C56.209 139.386 56.0769 140.355 56.5344 141.214C56.9919 142.073 57.8688 142.502 58.4891 142.17L87.7337 126.524C88.354 126.192 88.4861 125.223 88.0286 124.365C87.5711 123.506 86.6942 123.077 86.0739 123.409L56.8293 139.055Z" fill="#9672FB"/>
<path d="M60.4325 145.817C59.8122 146.149 59.6801 147.118 60.1376 147.977C60.5951 148.835 61.472 149.264 62.0923 148.932L91.3369 133.287C91.9573 132.955 92.0893 131.986 91.6318 131.127C91.1743 130.269 90.2975 129.839 89.6771 130.171L60.4325 145.817Z" fill="#9672FB"/>
<path d="M66.1115 85.2025L92.6104 86.8239L100.032 64.6469L76.7891 59.7259L66.1115 85.2025Z" fill="#2F2E41"/>
<path d="M85.2225 79.5946C91.0757 79.5946 95.8206 74.8399 95.8206 68.9746C95.8206 63.1094 91.0757 58.3546 85.2225 58.3546C79.3693 58.3546 74.6243 63.1094 74.6243 68.9746C74.6243 74.8399 79.3693 79.5946 85.2225 79.5946Z" fill="#FFB8B8"/>
<path d="M102.441 90.3069L85.2604 93.1241L80.731 75.1253L92.7575 74.0298L102.441 90.3069Z" fill="#FFB8B8"/>
<path d="M112.437 164.18L112.506 165.007C99.1653 169.61 84.8925 170.821 70.9692 168.531L70.8786 169.999C70.8279 170.786 70.5932 171.55 70.1934 172.228C69.7936 172.907 69.24 173.482 68.5773 173.907C67.9147 174.332 67.1616 174.595 66.3789 174.674C65.5962 174.753 64.8059 174.646 64.0719 174.363L67.0333 167.786L70.7787 159.463L73.2339 154.007L72.3499 135.132L72.2562 133.178L72.1406 130.687L73.74 130.677L85.1105 130.608L95.9469 130.54L97.5994 130.53C107.961 143.302 116.511 153.681 112.437 164.18Z" fill="#2F2E41"/>
<path d="M97.4432 130.374L72.1406 133.191L71.2035 115.662C68.2341 108.073 70.1943 101.299 76.357 95.2203L77.6099 90.2508C77.9387 88.9465 78.6182 87.7574 79.5744 86.813C80.5306 85.8686 81.7269 85.205 83.0332 84.8944C87.175 82.5141 91.8667 81.3795 97.1308 81.5423C99.2332 82.3649 101.016 83.8433 102.215 85.759C103.415 87.6747 103.968 89.9262 103.792 92.1809C102.703 105.957 100.749 118.852 97.4432 130.374Z" fill="#9672FB"/>
<path d="M90.2585 100.95L90.0555 102.487L86.8224 126.931L85.1105 130.609L84.5514 131.811L71.5159 159.798L70.9692 168.531L70.8786 169.999C70.835 170.73 70.6324 171.442 70.285 172.086C69.9376 172.73 69.4538 173.29 68.8675 173.727C68.2813 174.163 67.6068 174.466 66.8913 174.614C66.1759 174.762 65.4369 174.751 64.7261 174.582C64.0152 174.414 63.3499 174.091 62.7766 173.637C62.2034 173.184 61.7362 172.61 61.4078 171.956C61.0793 171.302 60.8976 170.584 60.8754 169.852C60.8532 169.121 60.991 168.393 61.2792 167.72L61.8009 166.49L64.6435 159.798L72.3499 135.132L72.984 133.097L73.74 130.677L75.8891 123.8L79.3128 102.653L79.6377 100.637L90.2585 100.95Z" fill="#FFB8B8"/>
<path d="M92.1328 103.141C87.2236 101.373 82.5141 101.185 78.0758 103.141L79.5244 90.5589C79.4713 88.9877 80.0356 87.4583 81.0959 86.2997C82.1563 85.141 83.6281 84.4456 85.1948 84.363C85.9819 84.3215 86.7694 84.436 87.5121 84.7002C88.2549 84.9643 88.9384 85.3727 89.5233 85.902C90.1082 86.4314 90.5831 87.0712 90.9208 87.7849C91.2584 88.4985 91.4521 89.272 91.4908 90.0608L92.1328 103.141Z" fill="#9672FB"/>
<path d="M77.2051 56.4272C77.2051 56.4272 71.7251 58.4311 71.5844 65.7166C71.5766 66.9426 71.7399 68.1637 72.0696 69.3443C72.4249 70.6833 72.71 73.5885 70.3205 77.4613C68.7591 79.9751 67.3475 82.5792 66.093 85.26L72.2634 85.8566L73.2837 75.6067C73.7784 70.6373 75.0005 65.768 76.9108 61.1554L76.9507 61.0591C76.9507 61.0591 79.7815 65.9893 85.1616 65.8374L83.186 63.9662C83.186 63.9662 89.9246 66.5091 93.5888 67.0197C94.007 67.078 94.4014 67.2496 94.7295 67.5159C95.0576 67.7822 95.3069 68.1332 95.4507 68.531C95.5945 68.9288 95.6272 69.3584 95.5454 69.7734C95.4636 70.1885 95.2703 70.5733 94.9864 70.8865C94.9649 70.9101 94.9429 70.9337 94.9205 70.9575C92.6797 73.3331 88.2197 78.8545 91.0289 83.0145C93.838 87.1746 91.5647 88.3949 91.5647 88.3949L95.727 85.965L97.616 84.7555L97.6593 86.2959L107.618 84.8586C107.618 84.8586 110.298 84.3976 104.349 78.0138C104.349 78.0138 102.756 75.5146 103.36 73.3031C103.86 71.6213 103.954 69.8444 103.634 68.119C102.14 60.9363 96.6696 46.7267 77.2051 56.4272Z" fill="#2F2E41"/>
</svg>
